<svg width="242" height="242" version="1.1" xmlns="http://www.w3.org/2000/svg" xmlns:xlink="http://www.w3.org/1999/xlink"><path d="M148.59 31.44L148.59 31.44Q148.59 33.38 146.17 37.98L146.17 37.98L145.44 39.91Q144.72 42.33 141.57 60.24L141.57 60.24Q138.67 77.66 128.74 85.65L128.74 85.65L124.63 85.41Q122.69 82.26 113.26 71.61L113.26 71.61Q112.29 70.40 111.32 69.44L111.32 69.44L111.32 68.47L122.45 71.37Q124.63 71.61 126.08 70.89L126.08 70.89Q132.37 67.98 133.83 49.11L133.83 49.11Q134.55 40.40 133.34 36.28L133.34 36.28L131.65 35.56Q122.45 37.49 113.01 40.64L113.01 40.64Q117.61 44.75 118.34 47.17L118.34 47.17Q107.69 66.29 101.64 72.58L101.64 72.58Q95.83 78.63 89.30 81.54L89.30 81.54L88.81 79.60Q101.88 63.63 105.27 55.40L105.27 55.40Q107.93 48.87 108.17 42.33L108.17 42.33L100.43 44.03Q99.46 44.03 98.25 43.54L98.25 43.54Q92.93 41.61 92.69 39.43L92.69 39.43Q94.86 38.22 105.75 36.77L105.75 36.77Q107.69 36.52 109.14 36.04L109.14 36.04Q126.81 31.68 133.83 26.60L133.83 26.60Q138.18 26.60 148.59 31.44ZM193.84 214.88L193.84 214.88Q189.97 214.64 185.37 207.86L185.37 207.86Q183.44 205.20 182.47 204.23L182.47 204.23Q178.60 199.87 165.04 190.68L165.04 190.68Q162.14 188.50 159.96 186.81L159.96 186.81L159.72 185.60Q161.17 184.87 173.03 186.81L173.03 186.81Q186.10 188.74 187.55 183.42L187.55 183.42L188.28 179.06L187.55 74.76Q187.55 54.19 187.55 52.98L187.55 52.98Q186.34 39.43 179.08 31.93L179.08 31.93Q179.08 26.36 189.00 29.02L189.00 29.02Q198.92 31.93 202.55 37.25L202.55 37.25Q203.52 38.70 203.52 40.15L203.52 40.15Q203.52 41.12 201.59 48.38L201.59 48.38L201.10 50.56Q199.65 63.39 199.17 74.03L199.17 74.03L199.17 128.48L202.31 175.92Q203.04 208.59 193.84 214.88ZM163.35 79.60L163.35 79.60L161.90 125.82Q160.93 142.76 157.54 146.39L157.54 146.39Q154.64 146.39 151.73 141.31L151.73 141.31Q151.25 140.58 151.01 140.34L151.01 140.34Q149.80 133.32 151.73 112.51L151.73 112.51Q153.67 90.01 148.10 77.18L148.10 77.18Q148.10 74.52 149.56 73.31L149.56 73.31Q158.75 74.28 163.35 79.60ZM80.34 66.53L80.34 66.53Q58.08 90.73 50.09 100.90L50.09 100.90Q45.98 100.17 43.08 94.60L43.08 94.60Q42.35 92.91 42.35 91.46L42.35 91.46Q42.11 90.01 44.53 84.92L44.53 84.92L45.01 83.47Q47.92 73.31 44.53 58.79L44.53 58.79Q42.35 50.08 38.48 45.48L38.48 45.48Q38.24 39.43 49.85 46.93L49.85 46.93Q50.58 47.41 50.82 47.66L50.82 47.66L64.13 31.44Q67.76 26.36 68.73 23.21L68.73 23.21L69.45 18.62Q69.70 18.13 70.42 17.89L70.42 17.89Q74.78 16.44 83.25 24.42L83.25 24.42Q84.70 25.63 85.67 26.84L85.67 26.84Q85.43 29.75 79.86 32.17L79.86 32.17Q77.92 33.14 76.96 33.62L76.96 33.62L52.27 51.29Q51.55 60.24 52.51 71.61L52.51 71.61L53.48 78.87L54.69 80.08Q60.02 77.42 74.05 67.02L74.05 67.02Q76.47 65.08 78.17 63.87L78.17 63.87Q78.17 62.66 75.26 57.09L75.26 57.09Q73.08 52.74 75.26 50.56L75.26 50.56L84.94 57.09Q88.09 59.76 88.81 62.42L88.81 62.42Q89.30 63.63 89.30 65.08L89.30 65.08Q89.30 73.07 83.01 68.71L83.01 68.71Q81.80 67.98 80.34 66.53ZM130.92 115.90L130.68 115.90Q111.32 104.53 93.65 96.30L93.65 96.30L65.10 125.82Q39.45 150.75 19.12 150.75L19.12 150.75Q47.43 129.45 52.27 125.34L52.27 125.34Q75.50 105.74 82.28 89.76L82.28 89.76L84.46 83.96L84.70 83.71Q93.41 84.20 98.25 88.80L98.25 88.80L97.04 92.43Q125.60 98.72 130.68 103.56L130.68 103.56Q134.07 106.95 135.04 112.27L135.04 112.27L134.79 115.17Q134.31 116.14 133.10 116.38L133.10 116.38L130.92 115.90ZM128.02 155.35L128.02 155.35Q120.52 159.46 106.00 170.83L106.00 170.83L104.06 170.83L104.06 168.90Q111.56 157.77 112.77 154.62L112.77 154.62Q114.22 150.51 114.22 146.39L114.22 146.39Q118.58 145.18 124.15 149.05L124.15 149.05Q128.50 151.96 128.02 155.35ZM130.20 170.11L132.37 170.35Q132.37 174.22 125.36 177.13L125.36 177.13Q117.13 181.00 105.27 185.11L105.27 185.11Q72.60 197.21 56.39 206.41L56.39 206.41Q51.30 205.68 43.32 199.39L43.32 199.39Q42.11 198.66 41.62 197.94L41.62 197.94Q40.17 196.49 40.41 194.31L40.41 194.31Q40.41 193.82 40.41 193.10L40.41 193.10Q42.11 190.68 47.92 191.40L47.92 191.40Q48.88 191.65 49.61 191.65L49.61 191.65Q54.69 191.65 79.62 184.63L79.62 184.63Q83.25 183.66 85.67 182.93L85.67 182.93L85.91 150.75L68.49 154.38Q61.23 155.10 56.39 152.20L56.39 152.20L55.66 150.51L84.22 143.49L85.18 143.00Q86.15 138.89 83.97 130.66L83.97 130.66Q83.73 129.94 83.73 129.21L83.73 129.21Q73.08 128.24 71.63 127.76L71.63 127.76Q69.45 127.03 67.76 125.58L67.76 125.58Q68.00 124.13 71.15 122.92L71.15 122.92Q74.54 122.92 91.48 117.59L91.48 117.59Q109.63 111.79 115.43 117.35L115.43 117.35Q115.43 119.77 113.01 120.74L113.01 120.74L92.20 126.79Q96.07 129.21 97.53 137.68L97.53 137.68L110.59 133.81Q116.89 132.84 121 136.95L121 136.95Q121 140.83 103.82 145.42L103.82 145.42Q98.25 146.88 96.80 147.60L96.80 147.60L94.86 179.79Q103.09 178.34 128.74 170.35L128.74 170.35Q129.47 170.35 130.20 170.11L130.20 170.11ZM73.57 171.32L73.57 171.32L73.81 178.34L72.84 180.51L71.87 181.00Q66.79 180.03 60.26 172.29L60.26 172.29Q55.90 167.20 53.48 165.51L53.48 165.51L53.72 161.40Q67.76 165.03 72.12 169.62L72.12 169.62Q72.84 170.35 73.57 171.32Z" stroke="#000" fill="black" /></svg>