<?xml version="1.0" encoding="UTF-8" standalone="no"?>
        <svg 
    viewBox="18.408203125 -76.904296875 443.26171875 59.912109375"
    width="424.853515625"
    height="136.81640625"
   xmlns="http://www.w3.org/2000/svg"
   xmlns:svg="http://www.w3.org/2000/svg">
   <path d="M70.61-123.93L70.61-123.93Q69.73-122.75 70.02-121.00L70.02-121.00Q74.41-118.07 79.69-114.26L79.69-114.26Q80.86-109.57 82.62-104.59L82.62-104.59Q83.20-99.32 81.45-94.04L81.45-94.04Q79.98-92.58 78.22-92.29L78.22-92.29Q76.46-95.80 76.17-99.02L76.17-99.02Q72.66-102.25 68.26-100.78L68.26-100.78Q66.50-98.44 65.92-95.51L65.92-95.51Q63.57-94.63 60.64-94.63L60.64-94.63Q54.79-90.23 50.98-84.96L50.98-84.96Q49.22-85.55 48.93-86.72L48.93-86.72Q49.51-94.34 50.10-102.25L50.10-102.25Q55.96-108.69 62.70-114.84L62.70-114.84Q59.77-118.07 55.66-118.95L55.66-118.95Q52.73-119.24 50.39-118.65L50.39-118.65Q42.48-112.79 34.28-108.69L34.28-108.69Q33.40-106.35 34.86-104.30L34.86-104.30Q38.96-104.00 42.19-101.95L42.19-101.95Q42.48-86.43 39.26-72.07L39.26-72.07Q40.14-69.73 43.36-68.55L43.36-68.55Q48.34-71.48 53.91-74.12L53.91-74.12Q55.96-72.66 55.66-69.14L55.66-69.14Q41.31-49.51 26.07-29.59L26.07-29.59Q22.85-27.83 19.63-26.07L19.63-26.07Q18.16-23.73 18.46-20.51L18.46-20.51Q21.09-16.41 25.78-18.75L25.78-18.75Q38.38-33.69 49.80-48.93L49.80-48.93Q57.71-50.10 64.45-47.75L64.45-47.75L64.45-44.82Q56.25-39.55 46.00-39.55L46.00-39.55Q44.53-38.67 44.82-36.62L44.82-36.62Q57.71-33.69 70.61-31.64L70.61-31.64Q57.71-20.21 40.72-14.36L40.72-14.36Q39.26-13.48 39.84-11.13L39.84-11.13Q41.89-8.79 45.70-8.20L45.70-8.20Q52.73-9.38 59.47-12.30L59.47-12.30Q78.22-25.78 99.32-37.50L99.32-37.50Q99.32-38.96 98.73-39.55L98.73-39.55Q92.29-38.38 86.43-36.33L86.43-36.33Q88.18-43.95 87.60-48.93L87.60-48.93Q80.86-50.39 73.83-48.05L73.83-48.05Q72.07-49.22 71.19-50.10L71.19-50.10Q76.76-55.96 85.55-59.18L85.55-59.18Q92.58-58.59 99.32-55.08L99.32-55.08Q101.95-57.13 102.83-60.06L102.83-60.06Q100.49-62.70 98.14-64.75L98.14-64.75Q96.39-73.24 99.61-80.86L99.61-80.86Q98.14-82.91 95.80-84.08L95.80-84.08Q92.87-81.74 91.41-78.22L91.41-78.22Q82.32-75.59 72.66-75L72.66-75Q70.31-76.17 71.19-78.52L71.19-78.52Q72.95-82.03 75.59-85.25L75.59-85.25Q78.81-86.13 82.32-85.25L82.32-85.25Q88.48-89.94 90.53-97.56L90.53-97.56Q90.53-103.42 91.11-108.98L91.11-108.98Q88.48-113.09 88.18-117.48L88.18-117.48Q84.67-123.05 78.22-125.98L78.22-125.98Q73.54-126.56 70.61-123.93ZM60.64-60.35L60.64-60.35Q63.28-58.30 61.82-55.08L61.82-55.08Q57.13-52.73 53.32-55.37L53.32-55.37Q54.49-57.71 55.66-59.77L55.66-59.77Q57.71-60.94 60.64-60.35ZM88.77-67.68L88.77-67.68Q89.94-66.80 90.82-65.63L90.82-65.63Q87.30-62.40 81.45-60.64L81.45-60.64Q78.22-60.35 76.17-62.11L76.17-62.11Q76.17-63.87 77.34-64.75L77.34-64.75Q82.62-66.80 88.77-67.68ZM82.62-72.95L82.62-72.95Q83.79-72.36 84.08-70.90L84.08-70.90Q74.41-67.97 64.45-65.33L64.45-65.33Q62.11-65.63 60.94-67.38L60.94-67.38Q61.23-70.02 64.16-70.31L64.16-70.31Q73.24-72.36 82.62-72.95ZM91.41-72.95L91.41-72.95Q89.36-71.19 87.01-70.90L87.01-70.90Q85.25-71.78 85.55-73.24L85.55-73.24Q88.48-75.29 91.41-72.95ZM60.94-87.30L60.94-87.30Q63.87-84.08 61.82-79.39L61.82-79.39Q58.59-75.29 54.79-78.22L54.79-78.22Q56.84-83.50 60.94-87.30ZM100.49-125.39L100.49-125.39Q109.57-58.59 119.82 5.27L119.82 5.27Q122.46 7.03 125.98 8.50L125.98 8.50Q129.49 8.20 131.54 6.15L131.54 6.15Q132.13 2.34 132.13-1.46L132.13-1.46Q130.66-4.39 128.61-6.15L128.61-6.15Q118.07-58.30 111.33-112.21L111.33-112.21Q113.67-118.36 112.21-124.80L112.21-124.80Q108.69-128.61 103.71-128.03L103.71-128.03Q101.66-127.44 100.49-125.39ZM237.01-125.39L237.01-125.39Q234.38-115.72 227.93-108.11L227.93-108.11Q220.90-105.18 213.57-104.88L213.57-104.88Q212.70-112.50 207.71-116.89L207.71-116.89Q202.73-118.07 200.68-114.84L200.68-114.84Q203.32-108.40 203.61-101.07L203.61-101.07Q192.19-97.85 181.64-92.58L181.64-92.58Q180.76-91.11 180.18-89.36L180.18-89.36Q182.52-87.01 185.74-86.43L185.74-86.43Q195.70-91.70 207.13-94.63L207.13-94.63Q208.59-90.53 211.82-87.30L211.82-87.30Q211.23-83.20 209.18-80.57L209.18-80.57Q211.23-79.98 214.16-80.86L214.16-80.86Q214.45-79.69 214.45-77.93L214.45-77.93Q208.30-75.29 202.44-72.66L202.44-72.66Q201.27-74.12 200.10-75.59L200.10-75.59Q195.41-77.93 191.60-75.29L191.60-75.29Q196.29-56.54 205.66-40.72L205.66-40.72Q210.94-43.95 216.80-43.36L216.80-43.36Q217.97-40.72 217.68-37.21L217.68-37.21Q216.50-35.45 215.04-33.69L215.04-33.69Q207.13-31.05 198.93-30.18L198.93-30.18Q195.12-32.23 191.60-33.40L191.60-33.40Q185.74-34.57 181.05-32.52L181.05-32.52Q181.05-29.30 183.40-26.66L183.40-26.66Q177.54-23.44 171.68-20.21L171.68-20.21Q172.56-16.41 176.66-15.53L176.66-15.53Q183.11-16.70 189.26-15.23L189.26-15.23Q188.38-9.38 190.43-4.39L190.43-4.39Q192.77-4.10 195.12-3.22L195.12-3.22Q199.22-5.57 199.51-10.55L199.51-10.55Q196.58-15.23 197.75-20.51L197.75-20.51Q205.96-26.66 216.80-28.42L216.80-28.42Q220.61-18.16 226.17-7.91L226.17-7.91Q230.27-6.45 234.96-7.62L234.96-7.62Q241.70-14.36 244.63-23.44L244.63-23.44Q249.61-22.56 254.59-20.80L254.59-20.80Q256.05-21.97 256.35-24.02L256.35-24.02Q253.13-27.54 250.20-31.64L250.20-31.64Q250.20-34.86 249.61-37.21L249.61-37.21Q253.13-40.43 258.69-40.43L258.69-40.43Q261.91-21.97 266.02-3.52L266.02-3.52Q266.02-0.29 264.84 2.34L264.84 2.34Q265.43 5.86 268.65 7.91L268.65 7.91L273.63 7.91Q276.27 5.86 278.32 2.93L278.32 2.93Q274.80-7.03 271.58-16.11L271.58-16.11Q271.58-29.88 271.58-43.36L271.58-43.36Q268.36-49.22 261.62-49.80L261.62-49.80Q244.92-41.60 225.88-37.50L225.88-37.50Q223.83-38.38 222.95-39.84L222.95-39.84Q224.12-45.70 227.64-50.10L227.64-50.10Q233.50-52.44 236.72-57.71L236.72-57.71Q235.55-59.47 236.13-61.52L236.13-61.52Q239.36-62.99 241.99-65.04L241.99-65.04Q244.34-62.11 243.46-57.13L243.46-57.13Q245.21-55.37 248.44-55.66L248.44-55.66Q254.59-71.19 258.40-89.65L258.40-89.65L255.76-91.41Q241.11-89.94 228.22-84.38L228.22-84.38Q224.71-84.08 222.36-85.84L222.36-85.84Q227.64-97.27 238.48-104.88L238.48-104.88Q243.75-105.76 250.20-104.88L250.20-104.88Q252.83-106.35 254.59-109.28L254.59-109.28Q253.71-111.04 253.42-112.21L253.42-112.21Q249.32-113.67 245.21-112.50L245.21-112.50Q244.63-118.65 248.73-123.93L248.73-123.93Q247.27-128.03 242.58-128.32L242.58-128.32Q239.36-128.03 237.01-125.39ZM241.11-34.57L241.11-34.57Q237.01-24.90 231.15-16.11L231.15-16.11Q226.17-21.39 225-29.30L225-29.30Q225.88-30.47 226.76-31.93L226.76-31.93Q233.79-35.74 241.11-34.57ZM217.68-60.64L217.68-60.64Q217.38-55.96 217.68-52.15L217.68-52.15Q215.33-48.34 211.23-48.34L211.23-48.34Q208.01-53.03 206.54-57.71L206.54-57.71Q211.82-62.11 217.68-60.64ZM234.67-63.57L234.67-63.57Q233.79-61.23 232.62-58.59L232.62-58.59Q228.81-54.79 224.12-53.32L224.12-53.32Q222.07-56.25 222.36-60.35L222.36-60.35Q223.83-63.28 226.76-64.75L226.76-64.75Q231.15-67.09 234.67-63.57ZM217.97-73.54L217.97-73.54Q220.02-72.07 219.43-69.14L219.43-69.14Q216.80-66.80 212.99-67.38L212.99-67.38Q211.23-68.26 211.52-69.73L211.52-69.73Q213.57-72.95 217.97-73.54ZM246.68-83.20L246.68-83.20Q245.51-75.88 242.58-69.14L242.58-69.14Q234.96-70.61 227.05-69.14L227.05-69.14Q224.71-71.19 225.59-72.95L225.59-72.95Q228.22-76.46 230.86-79.69L230.86-79.69Q238.48-83.79 246.68-83.20ZM221.19-99.61L221.19-99.61Q221.19-95.21 217.38-90.82L217.38-90.82Q214.16-92.58 214.16-95.80L214.16-95.80Q215.63-100.20 221.19-99.61ZM427.44-12.60L427.44-12.60Q424.80-10.84 424.22-7.62L424.22-7.62Q423.93-3.22 427.73-0.88L427.73-0.88L433.30-0.88Q437.99-4.69 443.26-9.96L443.26-9.96Q442.38-14.06 439.75-16.11L439.75-16.11Q433.59-14.94 427.44-12.60ZM370.31-120.41L370.31-120.41Q367.38-116.60 365.33-111.91L365.33-111.91Q365.33-102.25 362.99-93.46L362.99-93.46Q362.70-73.24 365.33-53.03L365.33-53.03Q368.55-37.50 374.12-22.56L374.12-22.56Q376.76-18.46 382.32-19.04L382.32-19.04Q387.30-25.78 393.75-29.30L393.75-29.30Q398.14-23.44 405.18-19.63L405.18-19.63Q408.98-18.75 413.09-18.46L413.09-18.46Q415.72-19.63 416.31-21.68L416.31-21.68Q406.64-27.83 399.61-36.04L399.61-36.04Q398.44-42.77 398.44-50.10L398.44-50.10Q395.21-53.32 391.99-54.79L391.99-54.79Q386.72-55.37 384.96-50.98L384.96-50.98Q386.13-44.82 387.89-38.67L387.89-38.67Q385.25-34.86 382.03-30.76L382.03-30.76Q379.98-31.35 378.81-32.52L378.81-32.52Q375.59-43.95 372.07-54.79L372.07-54.79Q371.78-73.54 370.61-91.70L370.61-91.70Q372.36-99.02 372.66-106.64L372.66-106.64Q377.34-111.62 378.22-118.65L378.22-118.65Q374.71-122.75 370.31-120.41ZM329.30-120.41L329.30-120.41Q324.02-118.65 320.51-114.26L320.51-114.26Q320.21-109.28 325.20-106.35L325.20-106.35Q335.45-111.04 346.00-115.14L346.00-115.14Q347.75-113.96 347.17-111.33L347.17-111.33Q336.91-98.14 326.07-87.30L326.07-87.30Q326.07-84.08 328.71-81.74L328.71-81.74Q332.81-80.86 337.50-80.27L337.50-80.27Q340.14-78.81 341.60-75.59L341.60-75.59Q340.43-72.36 340.14-69.14L340.14-69.14Q335.16-61.23 329.00-54.20L329.00-54.20Q328.42-50.98 330.47-48.63L330.47-48.63Q333.40-47.46 336.62-46.88L336.62-46.88Q340.14-43.95 343.07-39.84L343.07-39.84Q343.65-33.98 343.07-27.83L343.07-27.83Q339.84-20.80 336.91-13.48L336.91-13.48Q333.40-11.13 330.47-8.20L330.47-8.20Q325.78-7.03 321.39-7.91L321.39-7.91Q316.70-13.77 314.65-21.09L314.65-21.09Q313.48-29.30 314.65-37.79L314.65-37.79Q317.58-44.53 319.34-51.86L319.34-51.86Q316.99-54.79 313.48-53.03L313.48-53.03Q309.96-46.29 307.91-38.96L307.91-38.96Q306.74-29.30 307.03-19.04L307.03-19.04Q308.20-12.60 310.25-5.86L310.25-5.86Q312.60-3.52 315.23-0.29L315.23-0.29Q321.97 3.52 330.47 3.52L330.47 3.52Q335.45 0.59 340.43-2.64L340.43-2.64Q345.70-10.55 349.80-18.75L349.80-18.75Q350.98-27.83 352.15-36.62L352.15-36.62Q350.98-40.72 350.10-44.53L350.10-44.53Q346.00-50.10 341.89-54.49L341.89-54.49Q346.88-63.87 349.80-74.41L349.80-74.41Q349.80-77.93 348.93-80.57L348.93-80.57Q343.95-85.55 341.31-90.82L341.31-90.82Q349.22-100.78 356.84-110.45L356.84-110.45Q357.13-114.84 359.47-118.07L359.47-118.07Q358.01-121.88 354.79-123.63L354.79-123.63Q341.89-123.05 329.30-120.41Z"/>
    </svg>
        