<svg width="242" height="242" version="1.1" xmlns="http://www.w3.org/2000/svg" xmlns:xlink="http://www.w3.org/1999/xlink"><path d="M200.38 138.75L200.38 138.75Q197.96 140.69 195.05 140.69L195.05 140.69L179.81 120.12L179.81 119.88L136.49 135.85Q122.21 141.90 112.05 148.92L112.05 148.92Q104.30 147.95 99.70 140.69L99.70 140.69Q98.98 139.24 98.49 137.79L98.49 137.79Q99.46 134.40 106.72 127.86L106.72 127.86Q109.87 124.96 111.08 123.02L111.08 123.02Q119.06 112.38 128.99 91.08L128.99 91.08Q145.93 52.36 146.65 37.36L146.65 37.36L143.75 26.22Q143.75 25.01 144.23 24.29L144.23 24.29Q145.20 23.08 151.49 23.08L151.49 23.08L163.83 27.43Q166.25 28.89 168.19 30.34L168.19 30.34Q168.67 31.79 168.67 32.76L168.67 32.76Q168.67 35.42 163.11 44.13L163.11 44.13Q161.90 45.58 161.41 46.79L161.41 46.79Q133.83 99.79 123.66 121.81L123.66 121.81L123.66 126.65Q128.26 126.17 144.96 121.57L144.96 121.57Q148.35 120.60 150.77 120.12L150.77 120.12L176.42 114.80L164.56 99.31Q164.56 95.19 166.01 93.50L166.01 93.50Q191.66 108.26 198.68 119.64L198.68 119.64Q204.73 129.56 200.38 138.75ZM102.85 26.22L102.85 26.22Q102.37 26.95 95.35 34.21L95.35 34.21Q92.69 36.87 91.23 39.29L91.23 39.29Q84.94 50.67 83.01 56.72L83.01 56.72L87.85 60.59L88.33 61.56L87.85 62.77L85.91 63.98Q61.47 65.67 47.43 68.82L47.43 68.82L39.45 97.86Q39.93 99.79 41.38 100.03L41.38 100.03Q61.71 95.19 68.49 92.77L68.49 92.77Q79.62 92.77 87.36 102.21L87.36 102.21Q87.36 104.39 84.22 111.65L84.22 111.65Q83.01 114.31 82.76 116.25L82.76 116.25L77.68 160.53Q75.26 180.14 56.87 193.20L56.87 193.20Q51.79 193.20 49.37 191.27L49.37 191.27L35.57 167.79Q35.09 167.07 35.09 166.58L35.09 166.58L35.57 165.62Q37.03 165.86 47.43 169.49L47.43 169.49Q52.03 171.18 55.42 171.18L55.42 171.18Q61.71 165.13 67.28 136.58L67.28 136.58Q71.63 113.83 69.21 107.05L69.21 107.05Q67.52 102.70 58.56 102.70L58.56 102.70Q42.83 102.70 29.52 115.04L29.52 115.04L26.62 116.01Q22.26 114.80 21.05 109.96L21.05 109.96Q20.57 108.02 21.30 106.33L21.30 106.33Q32.19 95.92 34.61 78.98L34.61 78.98Q36.30 66.15 30.98 57.44L30.98 57.44Q31.46 55.51 32.67 55.26L32.67 55.26Q37.75 56.23 45.25 61.31L45.25 61.31L68.73 56.47Q73.81 48.25 78.65 33.97L78.65 33.97Q79.86 29.61 79.86 27.68L79.86 27.68Q79.86 24.77 78.17 22.84L78.17 22.84Q64.37 24.29 57.84 25.98L57.84 25.98Q45.98 29.13 42.11 28.16L42.11 28.16Q38.24 27.43 35.57 24.53L35.57 24.53Q35.82 22.84 37.99 22.35L37.99 22.35Q57.11 17.51 60.26 16.54L60.26 16.54L75.50 10.74L78.41 10.25Q83.25 9.53 94.14 14.85L94.14 14.85Q99.95 17.75 101.64 20.17L101.64 20.17Q102.85 21.87 102.85 26.22Z" stroke="#000" fill="black" /></svg>