<svg width="242" height="242" version="1.1" xmlns="http://www.w3.org/2000/svg" xmlns:xlink="http://www.w3.org/1999/xlink"><path d="M184.65 53.72L184.65 53.72Q181.98 54.45 180.29 54.45L180.29 54.45L162.14 53.24L161.90 53.24Q157.78 53.24 140.84 54.93L140.84 54.93L132.86 55.42Q126.57 68.00 124.15 70.91L124.15 70.91L122.21 72.84Q120.52 72.84 120.03 72.12L120.03 72.12Q123.18 55.42 123.66 53.24L123.66 53.24L119.79 50.34Q119.31 49.61 119.31 48.64L119.31 48.64L125.11 46.95L126.08 33.40Q126.08 30.01 124.87 28.07L124.87 28.07Q124.87 25.89 127.53 24.68L127.53 24.68Q136.97 24.68 142.54 32.19L142.54 32.19L143.26 33.64Q143.02 35.57 138.91 42.35L138.91 42.35L137.21 45.74Q139.88 45.74 157.06 43.08L157.06 43.08Q174.48 40.41 182.47 46.95L182.47 46.95Q185.61 49.37 184.89 52.51L184.89 52.51Q184.89 53.00 184.65 53.72ZM107.69 51.30L108.66 53.00Q107.45 55.66 95.59 57.60L95.59 57.60Q91.96 58.32 90.75 58.81L90.75 58.81L90.99 69.21Q90.51 72.12 89.30 73.57L89.30 73.57Q85.18 72.60 82.76 66.07L82.76 66.07Q81.31 62.44 80.59 61.23L80.59 61.23L43.08 68.24Q34.85 65.82 30.25 60.74L30.25 60.74L30.01 57.35L30.73 56.63Q41.62 58.32 65.58 54.69L65.58 54.69Q73.33 53.48 78.17 53.24L78.17 53.24Q77.68 48.88 71.15 40.41L71.15 40.41Q66.79 34.85 69.70 32.67L69.70 32.67L70.66 32.19Q78.41 32.19 86.15 35.57L86.15 35.57L88.09 37.75L89.30 52.03L104.54 50.82Q106.24 50.82 107.69 51.30L107.69 51.30ZM171.58 235.22L171.58 235.22L168.92 234.50Q165.04 227.72 152.46 215.62L152.46 215.62Q147.38 210.78 144.47 207.39L144.47 207.39L146.65 206.43L163.11 208.60Q167.95 209.33 169.40 188.52L169.40 188.52L170.37 159.48Q169.16 157.54 163.59 154.88L163.59 154.88Q140.84 154.88 108.17 158.99L108.17 158.99L108.17 180.53L127.29 177.63L128.02 176.66L123.90 170.13Q122.94 167.71 124.39 165.77L124.39 165.77Q131.41 166.01 140.12 174.24L140.12 174.24Q148.10 181.98 146.41 187.79L146.41 187.79Q145.44 192.87 143.02 194.08L143.02 194.08Q137.94 194.08 131.65 183.19L131.65 183.19Q130.92 181.98 130.92 181.74L130.92 181.74Q94.86 193.12 78.17 201.34L78.17 201.34L75.26 201.34L65.58 194.33Q61.71 190.45 63.65 186.58L63.65 186.58L65.58 185.86Q72.12 186.82 87.85 183.92L87.85 183.92Q93.90 182.71 97.77 182.71L97.77 182.71L98.25 160.20Q82.28 162.14 48.88 171.09L48.88 171.09L48.64 220.95Q46.71 225.06 45.01 225.79L45.01 225.79Q35.33 222.88 34.61 205.70L34.61 205.70L34.61 178.60Q33.88 168.19 30.25 162.14L30.25 162.14Q30.25 158.51 31.70 157.54L31.70 157.54Q38.24 158.99 40.66 160.93L40.66 160.93Q47.92 160.45 75.75 155.36L75.75 155.36Q88.81 152.94 97.77 152.70L97.77 152.70L98.25 134.55L78.41 136.25Q77.20 140.36 76.47 141.09L76.47 141.09Q67.03 140.12 64.61 122.45L64.61 122.45Q64.61 121.97 64.37 120.27L64.37 120.27Q61.23 96.56 52.51 84.94L52.51 84.94Q52.51 83.73 53.97 81.80L53.97 81.80Q55.18 81.80 61.23 84.22L61.23 84.22Q65.10 85.91 68.00 84.22L68.00 84.22L118.34 74.54Q135.52 72.12 148.10 72.12L148.10 72.12Q159.24 79.13 162.38 83.73L162.38 83.73Q162.38 86.64 158.27 91.23L158.27 91.23Q156.33 93.41 155.61 94.62L155.61 94.62Q154.64 96.56 149.07 115.43L149.07 115.43Q142.78 136.97 136.00 137.21L136.00 137.21Q133.58 136.25 128.99 130.20L128.99 130.20Q125.36 130.20 108.90 132.62L108.90 132.62L108.17 151.25Q112.29 150.52 140.12 148.10L140.12 148.10Q158.27 146.65 169.64 142.54L169.64 142.54Q175.21 143.26 185.37 150.77L185.37 150.77Q191.42 155.12 192.39 158.03L192.39 158.03L192.63 159.24Q192.63 160.69 189.00 166.50L189.00 166.50L188.03 168.19Q185.86 173.51 183.68 198.20L183.68 198.20Q181.26 226.27 174.00 233.29L174.00 233.29Q172.79 234.50 171.58 235.22ZM141.33 84.46L141.33 84.46Q138.42 77.92 108.17 83.49L108.17 83.49L103.82 84.46L104.54 85.18Q110.59 86.39 110.11 96.07L110.11 96.07Q110.11 99.95 110.11 100.19L110.11 100.19Q123.66 97.04 128.74 100.67L128.74 100.67Q129.95 101.40 130.92 102.61L130.92 102.61Q130.92 106.24 128.99 106.48L128.99 106.48L109.63 109.87L109.38 124.63L122.21 121.97Q126.32 121.73 130.20 123.18L130.20 123.18Q135.52 117.37 139.88 93.90L139.88 93.90Q141.09 87.60 141.33 84.46ZM97.77 126.81L97.77 126.81L97.77 112.05Q86.88 113.50 85.67 113.50L85.67 113.50Q80.34 113.26 79.13 109.87L79.13 109.87Q83.73 107.45 97.77 103.82L97.77 103.82L95.83 91.72Q94.86 88.57 93.17 86.39L93.17 86.39Q74.29 90.27 71.87 90.99L71.87 90.99Q74.78 117.85 78.17 130.44L78.17 130.44Q95.59 127.29 97.77 126.81Z" stroke="#000" fill="black" /></svg>