<?xml version="1.0" standalone="no"?>
<!DOCTYPE svg PUBLIC "-//W3C//DTD SVG 20010904//EN"
 "http://www.w3.org/TR/2001/REC-SVG-20010904/DTD/svg10.dtd">
<svg version="1.0" xmlns="http://www.w3.org/2000/svg"
 width="900.000000pt" height="1132.000000pt" viewBox="0 0 900.000000 1132.000000"
 preserveAspectRatio="xMidYMid meet">

<g transform="translate(0.000000,1132.000000) scale(0.100000,-0.100000)"
fill="#000000" stroke="none">
<path d="M4765 10419 c-36 -21 -116 -103 -138 -143 l-22 -38 -50 8 c-88 16
-375 5 -606 -21 -121 -14 -222 -25 -224 -25 -3 0 -5 12 -5 26 0 38 -59 94 -99
94 -63 0 -117 -40 -165 -122 -29 -51 -8 -43 -356 -129 -69 -16 -159 -41 -199
-55 -122 -39 -137 -40 -145 -10 -10 40 -48 60 -100 52 -54 -8 -123 -65 -171
-141 -29 -45 -40 -53 -116 -84 -113 -46 -352 -166 -367 -184 -7 -8 -55 -47
-106 -86 l-93 -71 -44 20 c-64 29 -130 26 -169 -6 -55 -47 -73 -97 -67 -183
l6 -74 -52 -60 c-29 -33 -68 -79 -88 -101 -20 -23 -70 -84 -113 -136 -42 -52
-95 -118 -119 -146 -23 -28 -54 -67 -70 -87 l-27 -36 -37 24 c-48 33 -72 31
-126 -10 -69 -53 -77 -89 -40 -185 l29 -75 -39 -73 -39 -72 -35 29 c-33 27
-42 29 -102 27 -86 -4 -130 -25 -192 -95 -55 -61 -73 -110 -85 -223 -9 -93 30
-247 77 -303 9 -11 32 -45 51 -75 19 -30 53 -74 75 -96 58 -58 67 -80 102
-250 38 -186 81 -307 162 -455 101 -185 271 -438 387 -574 178 -209 285 -319
370 -379 171 -119 236 -165 335 -238 256 -187 556 -335 780 -385 l39 -8 -20
-25 c-22 -28 -152 -239 -152 -246 0 -3 -15 -26 -32 -52 -55 -80 -181 -345
-248 -522 -15 -41 -39 -97 -53 -125 -31 -63 -79 -204 -107 -321 -34 -136 -34
-303 0 -421 11 -36 10 -48 -4 -78 -31 -65 -47 -119 -52 -180 -4 -58 -7 -73
-20 -142 -8 -39 16 -112 54 -167 28 -41 88 -75 133 -76 15 0 32 -7 39 -15 15
-18 62 -40 104 -50 19 -4 34 -1 46 10 17 15 19 13 40 -30 13 -26 34 -52 51
-61 l29 -15 0 -157 c1 -192 7 -310 23 -422 15 -105 13 -449 -4 -627 -6 -73 -9
-177 -6 -232 3 -62 0 -124 -8 -167 -19 -104 -1 -210 48 -280 24 -35 50 -52
146 -99 126 -61 188 -94 227 -120 14 -9 66 -30 116 -46 72 -24 119 -32 232
-39 77 -6 155 -12 171 -15 17 -3 100 -8 185 -11 85 -3 166 -7 180 -7 61 -4
310 16 365 28 146 34 258 99 285 165 10 24 19 29 66 35 73 9 211 7 309 -4 129
-15 412 -8 460 11 22 9 52 19 67 22 68 15 181 110 223 188 23 43 30 69 33 135
8 149 -45 277 -166 404 l-44 47 18 33 c16 30 17 56 13 229 -8 385 2 903 20
996 5 27 15 78 21 114 7 36 16 79 22 97 9 30 12 32 48 28 22 -2 58 4 80 12 37
15 43 15 81 -2 36 -16 46 -17 87 -6 90 24 123 66 117 151 -2 25 -6 99 -10 165
-6 113 -24 228 -47 303 -8 26 -6 38 6 57 9 13 16 39 16 56 0 65 -65 414 -99
529 -49 169 -171 493 -211 560 -18 30 -47 88 -66 127 -18 40 -44 88 -59 106
l-25 34 88 17 c77 14 201 51 382 115 59 21 293 139 375 189 28 17 75 45 105
63 126 73 353 224 393 262 18 16 48 42 66 56 19 14 53 46 75 71 23 24 91 94
152 155 106 106 172 181 206 236 10 15 63 85 120 155 57 71 114 143 128 161
14 17 47 60 74 95 28 35 87 101 132 148 141 147 162 178 217 317 32 85 32 241
-1 298 -35 61 -94 98 -164 103 -49 4 -59 8 -63 26 -28 125 -31 156 -15 156 17
0 118 78 130 99 15 29 12 69 -7 101 -16 27 -44 40 -127 57 l-40 8 -32 110
c-39 137 -73 215 -142 330 -53 87 -54 91 -38 115 8 14 23 40 32 59 15 32 15
38 0 68 -9 18 -27 38 -42 43 -30 12 -110 12 -139 1 -16 -6 -35 7 -100 73 -44
45 -126 121 -182 169 l-103 88 26 39 c51 76 40 157 -24 181 -45 18 -137 12
-182 -11 -23 -11 -46 -17 -53 -13 -7 3 -64 47 -127 96 -63 50 -193 142 -288
205 -133 89 -171 119 -166 131 35 81 29 132 -17 155 -61 30 -91 30 -172 -4
l-77 -32 -107 50 c-291 134 -534 223 -767 278 l-117 28 4 41 c5 50 -18 144
-41 168 -23 22 -81 31 -107 16z m48 -120 c6 -9 7 -31 3 -51 l-6 -34 -45 10
c-25 6 -45 14 -45 18 0 14 63 79 73 75 6 -2 15 -10 20 -18z m-1193 -94 c16
-19 14 -21 -32 -28 -42 -6 -54 13 -20 32 24 15 38 13 52 -4z m934 -44 c3 -4
-13 -49 -35 -101 -44 -105 -79 -206 -79 -231 0 -18 37 -37 62 -31 9 2 24 24
34 50 22 61 106 261 121 286 10 19 15 19 87 8 124 -19 391 -87 552 -141 116
-38 516 -200 531 -214 1 -1 -39 -45 -89 -97 -120 -126 -125 -133 -104 -165 9
-14 25 -25 36 -25 18 0 132 108 152 144 4 7 28 30 53 51 l46 37 42 -18 c94
-42 422 -250 531 -338 28 -23 81 -64 119 -91 37 -27 67 -51 67 -54 0 -3 -15
-16 -33 -28 -34 -24 -60 -46 -174 -150 -73 -65 -88 -94 -61 -121 19 -19 43
-14 69 14 41 45 259 224 272 224 7 0 22 -8 33 -17 11 -10 51 -45 89 -78 38
-33 78 -69 90 -80 11 -11 67 -60 122 -108 103 -89 173 -160 173 -175 0 -5 -10
-13 -23 -19 -32 -15 -154 -108 -204 -156 -47 -45 -54 -71 -24 -87 27 -14 25
-15 86 40 45 41 216 160 229 160 6 0 107 -137 133 -179 45 -73 95 -174 120
-244 31 -88 63 -200 58 -206 -8 -8 -110 -40 -128 -41 -9 0 -22 -11 -29 -25 -9
-19 -8 -29 5 -49 19 -28 27 -28 107 3 40 15 56 18 61 9 4 -7 10 -46 14 -88 10
-128 36 -282 51 -305 23 -35 61 -48 100 -35 28 10 41 8 71 -7 53 -26 65 -53
60 -145 -3 -68 -9 -88 -52 -173 -32 -64 -67 -116 -103 -153 -62 -65 -163 -181
-239 -273 -102 -126 -259 -325 -297 -379 -59 -82 -87 -114 -210 -240 -61 -63
-128 -133 -147 -155 -86 -97 -247 -215 -484 -355 -77 -46 -167 -99 -200 -120
-172 -104 -466 -209 -714 -255 -102 -18 -215 -41 -251 -49 -61 -14 -182 -29
-345 -41 -124 -10 -705 -6 -850 5 -77 6 -234 28 -350 50 -115 21 -259 44 -320
50 -349 35 -613 85 -780 147 -73 27 -168 67 -196 82 -9 5 -56 31 -105 57 -110
59 -235 139 -334 213 -41 31 -95 69 -120 85 -156 100 -354 279 -471 426 -28
36 -73 90 -98 120 -98 115 -253 352 -354 541 -67 124 -103 230 -138 402 -17
84 -39 170 -48 192 -10 22 -48 72 -84 110 -120 128 -173 243 -176 385 -2 60 3
90 17 123 25 56 79 117 119 133 56 24 81 18 130 -32 42 -42 48 -45 82 -39 20
4 37 8 38 9 1 1 16 33 33 71 30 64 33 68 43 48 12 -28 40 -37 67 -23 27 14 25
48 -4 84 l-23 30 77 115 c43 64 102 146 131 182 168 209 249 306 269 324 12
11 36 40 53 65 l31 45 10 -32 c11 -40 40 -51 67 -27 13 12 17 24 13 38 -27 82
-26 83 39 146 34 32 80 72 102 88 22 17 101 78 175 136 129 101 216 152 393
230 l57 25 -6 -27 c-3 -15 -13 -51 -21 -80 -17 -62 -12 -82 20 -82 31 0 40 13
56 80 8 30 22 78 33 106 l18 51 148 48 c218 70 216 70 357 108 182 50 368 97
371 94 1 -1 -8 -33 -21 -72 -36 -112 -40 -148 -16 -169 33 -30 56 -8 70 66 17
87 68 197 95 203 62 14 438 64 666 88 60 7 380 5 384 -2z m-1874 -206 c0 -6
-30 -18 -70 -29 l-25 -7 24 20 c21 19 71 29 71 16z m3390 -180 c0 -19 -21 -19
-46 0 -18 14 -17 14 14 15 22 0 32 -5 32 -15z m-4367 -341 c11 -4 3 -16 -31
-47 -26 -23 -48 -45 -50 -49 -2 -5 -7 -8 -11 -8 -9 0 1 62 14 93 7 17 48 23
78 11z m5236 -203 c11 -7 10 -14 -8 -40 l-23 -31 -38 27 c-21 16 -37 30 -34
32 2 2 21 7 41 11 21 4 40 8 43 9 3 0 11 -3 19 -8z m511 -555 c0 -24 -15 -26
-28 -5 -11 16 -9 19 8 19 11 0 20 -6 20 -14z m-6477 -57 c12 -7 24 -13 25 -15
2 -1 -9 -23 -24 -49 l-27 -47 -14 32 c-22 53 -17 81 15 89 2 1 13 -4 25 -10z
m6837 -686 c-1 -5 -14 -24 -30 -43 -25 -28 -30 -31 -30 -15 0 11 -3 30 -6 43
-6 20 -3 22 30 22 20 0 36 -3 36 -7z m-4705 -2728 c94 -13 199 -27 235 -30
l65 -6 42 -87 c67 -140 134 -363 153 -512 6 -47 15 -98 20 -115 5 -16 12 -73
15 -125 4 -52 9 -97 10 -98 2 -2 -5 -24 -16 -49 -10 -24 -19 -52 -19 -62 0 -9
-15 -25 -32 -36 -18 -10 -58 -42 -88 -70 -119 -111 -284 -224 -327 -225 -9 0
-8 11 3 43 8 23 33 100 55 170 41 133 41 167 1 167 -34 0 -44 -20 -91 -176
-58 -195 -181 -490 -217 -521 -20 -19 -37 -23 -90 -23 -36 0 -97 6 -137 14
-40 8 -117 19 -172 25 -130 15 -230 39 -248 59 -51 56 -61 224 -26 395 14 69
42 151 86 252 35 83 76 184 90 225 14 41 40 107 58 145 18 39 56 118 83 177
28 59 71 138 95 175 24 38 67 104 95 148 28 44 68 102 89 128 34 43 41 48 68
43 16 -3 107 -17 200 -31z m602 -85 c81 -17 147 -31 147 -33 1 -1 9 -15 18
-32 40 -69 70 -143 98 -239 26 -92 33 -129 46 -251 7 -66 4 -229 -4 -237 -5
-5 -30 -1 -56 8 -44 15 -54 15 -115 2 -36 -9 -74 -19 -83 -23 -15 -6 -18 -2
-18 21 0 15 -11 80 -24 143 -14 64 -29 146 -35 183 -13 74 -136 446 -154 464
-13 13 -7 24 13 24 12 0 87 -14 167 -30z m1785 -100 c43 -99 52 -117 83 -170
17 -30 39 -75 48 -100 8 -25 32 -88 52 -140 96 -250 169 -552 182 -745 5 -75
4 -83 -18 -108 -15 -17 -66 -45 -133 -72 -59 -25 -110 -45 -112 -45 -2 0 -4
36 -4 80 0 45 -6 113 -14 153 -19 93 -33 195 -41 282 -4 39 -8 86 -10 105 -2
19 -6 71 -10 115 -8 85 -18 115 -39 115 -8 0 -23 -8 -34 -17 -19 -16 -20 -24
-12 -68 4 -27 11 -102 14 -165 6 -120 33 -357 42 -371 3 -5 1 -9 -4 -9 -11 0
-67 86 -76 117 -4 13 -15 30 -24 39 -10 11 -19 43 -23 89 -5 50 -16 90 -37
131 l-30 59 7 144 c11 239 -13 508 -55 610 -19 46 -19 47 19 56 17 4 57 13 87
20 l55 13 34 -36 c18 -21 42 -57 53 -82z m-349 23 c21 -46 44 -149 51 -223 13
-142 18 -305 11 -383 l-7 -85 -33 14 c-18 7 -65 14 -103 15 l-70 1 -5 107 c-4
92 -11 125 -51 244 -60 179 -104 287 -123 310 -15 16 -12 17 48 18 35 1 89 4
119 9 30 4 76 8 101 9 44 1 47 -1 62 -36z m-707 15 l260 -1 19 -31 c32 -53 41
-71 47 -91 3 -11 31 -92 61 -180 30 -88 58 -178 62 -200 10 -67 14 -167 9
-215 -7 -52 18 -46 -214 -49 -80 -1 -209 0 -288 2 -78 2 -168 0 -200 -4 -31
-3 -61 -4 -67 0 -6 3 -10 59 -10 131 0 167 -18 305 -55 420 -16 52 -30 100
-30 106 0 7 -14 38 -30 69 l-30 58 102 -7 c57 -3 220 -7 364 -8z m724 -790
c59 -30 89 -88 90 -174 0 -58 -2 -64 -35 -93 -20 -17 -47 -34 -60 -37 -32 -8
-93 3 -123 22 -29 19 -73 89 -83 134 -11 46 14 123 48 150 35 28 106 27 163
-2z m-1214 -29 c50 -19 58 -26 76 -67 32 -72 10 -171 -48 -208 -61 -40 -181
-11 -239 58 -24 29 -26 37 -20 82 8 67 32 105 80 132 51 28 81 29 151 3z m714
-39 l185 1 2 -67 c1 -49 7 -74 21 -93 10 -15 22 -36 26 -47 17 -54 124 -118
215 -129 72 -8 106 2 166 50 l40 32 18 -38 c10 -21 52 -69 93 -108 l74 -69 1
-109 c0 -59 4 -144 7 -189 9 -103 -4 -372 -18 -389 -6 -7 -8 -20 -4 -28 3 -9
-1 -53 -10 -99 -38 -206 -40 -229 -40 -759 l-1 -525 -27 -41 c-32 -49 -91 -74
-213 -93 -44 -7 -116 -19 -160 -27 -132 -24 -309 -28 -388 -9 -75 18 -181 21
-241 7 l-38 -9 6 66 c4 37 11 99 16 137 5 39 12 178 14 310 3 132 8 258 11
280 27 195 22 181 91 242 63 55 132 149 154 208 9 24 8 31 -5 41 -26 19 -49 6
-75 -44 -13 -26 -61 -85 -107 -132 -47 -49 -91 -105 -102 -131 -31 -69 -50
-260 -51 -501 -1 -117 -5 -234 -10 -258 -4 -25 -16 -98 -26 -163 -15 -103 -20
-120 -42 -137 -14 -11 -33 -20 -43 -20 -11 0 -19 -4 -19 -8 0 -10 -25 -22
-140 -69 -47 -18 -99 -40 -117 -48 -17 -8 -37 -15 -44 -15 -7 0 -31 -6 -54
-14 -114 -39 -212 -46 -413 -26 -103 10 -339 47 -353 56 -4 2 -76 18 -159 34
-83 16 -168 37 -188 47 l-37 18 -1 130 c0 72 3 207 7 300 8 162 2 282 -21 435
-5 36 -14 172 -20 302 l-10 238 40 40 c25 25 44 56 52 84 l12 44 57 -5 c50 -5
64 -2 102 21 74 43 95 126 72 276 -26 171 -27 156 10 195 22 24 49 76 80 155
37 94 51 120 65 120 11 0 41 12 67 26 179 99 254 152 361 256 l63 62 57 -57
c31 -31 79 -65 105 -76 55 -24 149 -41 181 -33 40 9 127 76 155 119 31 46 47
131 36 182 -7 33 -2 35 100 46 33 4 62 9 65 12 2 2 40 1 85 -2 44 -3 163 -5
265 -5z m1204 -572 c9 -41 16 -92 23 -145 l5 -53 -35 0 c-26 0 -39 -6 -47 -20
-6 -11 -8 -20 -5 -20 14 0 -26 -57 -50 -70 -34 -18 -57 -4 -66 40 -4 19 -14
39 -22 45 -8 6 -17 22 -19 35 -2 19 -10 26 -30 28 -26 3 -28 7 -28 46 l0 43
108 37 c59 21 116 41 127 46 30 13 34 12 39 -12z m-3476 -208 c51 -5 150 -19
220 -31 70 -12 155 -22 190 -23 60 -1 63 -2 59 -24 -2 -13 2 -53 10 -90 8 -37
13 -102 11 -144 -3 -63 -7 -82 -25 -99 -17 -17 -28 -20 -57 -15 -25 5 -35 12
-34 24 3 45 -2 53 -29 50 -33 -4 -49 -33 -70 -123 -16 -69 -48 -128 -66 -122
-21 6 -40 59 -51 140 -11 83 -20 92 -63 62 -17 -12 -21 -22 -16 -49 5 -30 3
-34 -23 -39 -67 -13 -102 37 -103 144 -1 63 -13 75 -52 55 -22 -11 -24 -18
-24 -79 0 -38 -4 -67 -10 -67 -44 1 -100 116 -90 184 10 71 26 139 47 203 19
61 20 62 51 58 18 -3 74 -9 125 -15z m3517 -130 c3 -55 -8 -130 -19 -130 0 0
-16 -4 -34 -9 -30 -9 -34 -7 -57 27 l-25 36 44 27 c36 23 47 37 61 79 9 28 19
49 22 46 3 -2 6 -36 8 -76z m-229 -56 c10 -6 18 -14 17 -18 -2 -3 -3 -19 -3
-34 0 -31 -30 -52 -74 -52 -20 0 -22 4 -20 43 0 23 2 62 3 87 l2 45 28 -30
c15 -16 36 -35 47 -41z m-220 -1752 c37 -31 83 -99 121 -177 34 -72 36 -83 35
-169 0 -105 -16 -148 -74 -202 -44 -42 -98 -68 -204 -99 -82 -24 -98 -25 -229
-20 -77 4 -169 11 -205 17 -36 5 -121 13 -189 17 l-124 6 -3 80 c-2 63 -9 96
-32 152 -43 101 -73 141 -168 219 -30 25 -41 40 -37 54 11 43 159 57 298 29
83 -16 101 -17 241 -3 221 21 429 58 489 88 60 30 55 30 81 8z m-1068 -287
c37 -42 61 -83 97 -168 22 -51 21 -181 -1 -236 -9 -22 -20 -41 -24 -41 -5 0
-11 -8 -14 -17 -8 -23 -78 -66 -141 -87 -125 -39 -454 -44 -845 -10 -262 22
-285 27 -415 89 -38 18 -104 49 -145 68 -41 19 -104 52 -140 74 -75 46 -96 81
-101 163 -3 62 10 178 21 185 3 2 31 -3 61 -11 59 -17 139 -33 294 -58 55 -10
114 -21 130 -26 62 -18 186 -30 350 -34 161 -4 175 -3 275 23 137 37 338 111
459 170 22 11 95 -34 139 -84z"/>
<path d="M1843 8559 c-28 -10 -41 -55 -22 -74 8 -8 50 -28 94 -45 44 -17 94
-38 110 -45 17 -8 104 -42 195 -76 91 -34 206 -77 255 -96 50 -19 104 -39 120
-45 17 -6 44 -20 60 -29 93 -56 138 -57 151 -4 10 41 -13 74 -60 86 -23 5 -70
22 -106 36 -36 14 -110 41 -165 60 -55 19 -149 54 -210 78 -60 24 -164 64
-230 90 -66 26 -131 53 -145 60 -16 8 -33 10 -47 4z"/>
<path d="M6019 8449 c-62 -34 -611 -241 -789 -297 -52 -17 -124 -35 -160 -42
-36 -6 -75 -13 -87 -16 -30 -6 -38 -39 -18 -70 15 -24 21 -25 63 -19 157 22
381 94 797 256 83 32 175 65 207 74 60 17 76 30 83 64 10 54 -41 80 -96 50z"/>
<path d="M5972 8251 c-26 -49 -26 -51 -7 -51 8 0 15 -4 15 -10 0 -16 30 -12
36 5 3 8 0 33 -8 56 l-14 42 -22 -42z"/>
<path d="M2049 8142 c-91 -23 -119 -36 -204 -92 -160 -105 -198 -144 -262
-267 -143 -278 -176 -491 -105 -688 52 -144 90 -204 191 -305 80 -80 139 -113
282 -163 84 -30 243 -57 334 -57 174 0 428 118 545 254 82 94 136 208 163 341
16 83 15 240 -2 300 -85 289 -137 394 -245 499 -134 128 -235 174 -428 195
-133 15 -148 14 -269 -17z m352 -77 c136 -33 200 -68 300 -165 57 -56 137
-209 163 -312 8 -33 7 -33 -70 -9 -185 58 -334 87 -494 96 -63 3 -170 13 -237
21 -67 8 -185 14 -262 14 -78 0 -141 3 -141 6 0 7 52 77 67 89 7 6 18 28 25
49 10 30 29 52 83 93 87 67 158 101 255 124 107 25 192 23 311 -6z m-86 -469
c148 -8 546 -93 576 -123 5 -5 14 -46 19 -92 11 -83 3 -180 -20 -263 -10 -34
-12 -36 -38 -28 -15 5 -162 14 -327 20 -165 6 -311 12 -325 14 -51 6 -139 18
-273 37 -76 10 -163 19 -193 19 -30 0 -86 5 -125 11 l-69 12 0 77 c0 68 12
163 27 214 4 16 8 15 36 -11 94 -88 223 -121 343 -89 62 16 87 40 123 114 50
105 46 101 98 97 27 -2 93 -7 148 -9z m-455 -521 c63 -8 167 -21 230 -29 63
-8 196 -17 295 -21 188 -6 385 -21 429 -33 l26 -7 -34 -51 c-19 -28 -54 -68
-78 -88 -41 -35 -162 -109 -220 -134 -106 -45 -288 -57 -430 -27 -151 31 -294
108 -381 205 -58 65 -123 190 -105 202 14 9 91 4 268 -17z"/>
<path d="M570 8077 c-35 -17 -38 -53 -7 -77 31 -25 69 -91 86 -150 24 -84 28
-90 61 -90 59 0 61 77 5 190 -35 69 -90 140 -109 140 -6 0 -22 -6 -36 -13z"/>
<path d="M5528 7810 c-144 -18 -252 -69 -356 -169 -59 -57 -172 -211 -212
-290 -12 -24 -30 -53 -41 -64 -10 -12 -19 -28 -20 -36 0 -9 -4 -47 -8 -86 -13
-111 22 -246 94 -365 66 -109 232 -245 321 -264 18 -4 46 -20 64 -36 59 -53
107 -81 181 -106 100 -34 138 -39 259 -37 234 3 311 34 451 180 72 76 107 123
152 203 84 153 111 248 111 385 0 127 -17 196 -71 295 -41 74 -127 161 -223
224 -69 46 -251 122 -360 150 -76 20 -247 28 -342 16z m233 -90 c164 -23 419
-133 508 -220 57 -55 96 -106 110 -143 l11 -29 -87 7 c-49 4 -155 15 -238 26
-293 39 -357 42 -500 25 -22 -3 -96 -8 -164 -11 -68 -3 -127 -7 -130 -9 -10
-6 -201 -16 -201 -11 0 11 77 113 133 177 55 64 145 129 213 157 33 13 161 35
227 39 21 2 74 -2 118 -8z m189 -435 c209 -25 291 -34 381 -41 l86 -6 7 -59
c7 -68 1 -129 -21 -215 -14 -55 -18 -61 -42 -62 -138 -4 -247 -1 -445 14 -279
20 -495 14 -676 -17 -187 -33 -179 -34 -213 33 -24 45 -31 75 -36 147 -3 50
-4 91 -1 91 3 0 11 -13 17 -28 19 -41 91 -110 121 -116 15 -3 57 -8 93 -11 56
-5 74 -3 120 18 32 14 68 40 86 62 31 37 41 55 81 147 21 46 22 47 74 51 128
9 252 6 368 -8z m-10 -459 c55 -6 294 -19 335 -18 17 1 41 4 54 7 23 6 23 5
-9 -52 -41 -73 -114 -165 -178 -225 -69 -64 -149 -90 -304 -96 -121 -4 -224
11 -305 45 -47 19 -131 82 -170 126 -37 42 -63 57 -98 57 -18 0 -43 16 -78 49
-29 27 -49 52 -46 56 11 11 123 35 224 49 97 13 473 14 575 2z"/>
<path d="M7825 7384 c-49 -54 -62 -90 -44 -123 19 -33 48 -31 74 5 11 15 32
41 48 57 32 35 33 47 8 75 -26 31 -48 27 -86 -14z"/>
<path d="M3467 7196 c-101 -99 -189 -190 -195 -202 -9 -18 -6 -30 21 -71 32
-51 136 -144 192 -174 78 -41 104 45 27 89 -51 29 -122 98 -122 118 0 25 28
59 179 213 160 163 172 190 95 206 -7 2 -95 -79 -197 -179z"/>
<path d="M3257 6558 c-14 -18 -55 -63 -91 -101 -36 -37 -84 -92 -106 -121 -22
-30 -44 -57 -50 -61 -18 -11 -10 -56 15 -81 14 -14 29 -22 34 -19 6 3 29 8 53
11 24 3 61 10 83 15 60 13 61 12 88 -33 32 -55 150 -168 175 -168 24 0 52 30
52 57 0 23 -36 73 -53 73 -11 1 -47 34 -77 73 -12 16 -12 20 1 28 20 12 193
11 243 -2 22 -6 59 -15 81 -21 22 -5 56 -22 75 -36 35 -27 38 -28 64 -31 8 0
27 -21 43 -46 30 -48 64 -65 88 -45 32 26 5 95 -57 149 -44 38 -145 92 -203
108 -82 23 -303 28 -420 9 -55 -9 -111 -19 -125 -23 -24 -6 -24 -6 7 33 17 21
41 48 53 59 35 31 110 137 110 155 0 18 -30 50 -47 50 -6 0 -22 -15 -36 -32z"/>
<path d="M8795 4130 c-3 -5 -1 -10 4 -10 6 0 11 5 11 10 0 6 -2 10 -4 10 -3 0
-8 -4 -11 -10z"/>
<path d="M8873 3565 c0 -8 4 -12 9 -9 5 3 6 10 3 15 -9 13 -12 11 -12 -6z"/>
</g>
</svg>
